<?xml version="1.0" encoding="UTF-8" standalone="no"?>
<svg width="166px" height="58px" viewBox="0 0 166 58" version="1.1" xmlns="http://www.w3.org/2000/svg" xmlns:xlink="http://www.w3.org/1999/xlink" xmlns:sketch="http://www.bohemiancoding.com/sketch/ns">
    <!-- Generator: Sketch 3.5.2 (25235) - http://www.bohemiancoding.com/sketch -->
    <title>menu-logo-engenharia</title>
    <desc>Created with Sketch.</desc>
    <defs/>
    <g id="Engenharia-(Sobre)" stroke="none" stroke-width="1" fill="none" fill-rule="evenodd" sketch:type="MSPage">
        <g id="02-1-Engenharia-(Sobre)" sketch:type="MSArtboardGroup" transform="translate(-518.000000, -10.000000)">
            <g id="Menu" sketch:type="MSLayerGroup">
                <g id="menu-logo-engenharia" transform="translate(518.000000, 10.000000)" sketch:type="MSShapeGroup">
                    <path d="M142.44755,34.2515174 L135.492506,34.2515174 L135.404891,34.2515174 L135.404891,34.1635071 L135.404891,32.1491139 L135.404891,32.0611036 L135.492506,32.0611036 L137.033845,32.0611036 L142.138591,26.5014014 L137.234438,21.3834877 L135.783597,21.3834877 L135.695981,21.3834877 L135.695981,21.2954774 L135.695981,19.3459339 L135.695981,19.2573446 L135.783597,19.2573446 L142.803199,19.2573446 L142.891391,19.2573446 L142.891391,19.3459339 L142.891391,21.2954774 L142.891391,21.3834877 L142.803199,21.3834877 L140.747697,21.3834877 L144.121464,25.0463367 L147.363232,21.3834877 L145.293896,21.3834877 L145.20628,21.3834877 L145.20628,21.2954774 L145.20628,19.3459339 L145.20628,19.2573446 L145.293896,19.2573446 L151.89329,19.2573446 L151.980906,19.2573446 L151.980906,19.3459339 L151.980906,21.2954774 L151.980906,21.3834877 L151.89329,21.3834877 L150.411899,21.3834877 L145.6922,26.7312704 L150.610763,32.0611036 L152.152101,32.0611036 L152.239717,32.0611036 L152.239717,32.1491139 L152.239717,34.1635071 L152.239717,34.2515174 L152.152101,34.2515174 L144.970526,34.2515174 L144.883487,34.2515174 L144.883487,34.1635071 L144.883487,32.1491139 L144.883487,32.0611036 L144.970526,32.0611036 L147.110185,32.0611036 L143.704139,28.219339 L140.313079,32.0611036 L142.44755,32.0611036 L142.534589,32.0611036 L142.534589,32.1491139 L142.534589,34.1635071 L142.534589,34.2515174 L142.44755,34.2515174 Z" id="Fill-3" fill="#FEFEFE"/>
                    <g id="Group-48">
                        <path d="M128.195878,32.3533325 C128.920434,32.3533325 129.567173,32.2300023 130.133791,31.9827629 C130.699256,31.7366815 131.186328,31.3666909 131.595007,30.8739491 L131.595007,30.8739491 C132.005416,30.3823654 132.314375,29.790033 132.520156,29.0992681 C132.72709,28.4061871 132.830845,27.6129366 132.830845,26.7224115 C132.830845,24.9448354 132.422742,23.5557783 131.605959,22.5702948 C131.196703,22.076974 130.709055,21.7075624 130.142437,21.460902 C129.574667,21.2148206 128.925622,21.0909114 128.195878,21.0909114 C127.465558,21.0909114 126.816513,21.2148206 126.248743,21.460902 C125.682125,21.7075624 125.1939,22.076974 124.785221,22.5702948 C124.37827,23.0612995 124.072193,23.6530529 123.868142,24.3426598 C123.662937,25.0363197 123.560335,25.8307283 123.560335,26.7224115 C123.560335,27.6181477 123.662937,28.4137143 123.866412,29.1085323 C124.070464,29.8004553 124.374812,30.3927876 124.780033,30.8849504 C125.182948,31.3747971 125.668291,31.7407346 126.235485,31.9850789 C126.805561,32.2311603 127.459794,32.3533325 128.195878,32.3533325 M128.195878,34.6415998 C127.025752,34.6415998 125.97898,34.4650002 125.054407,34.1112221 C124.127529,33.7562859 123.324581,33.2235921 122.643833,32.5125616 C121.963661,31.8021102 121.453532,30.9660125 121.11287,30.0036896 C120.77336,29.0436827 120.602741,27.9586085 120.602741,26.7490462 C120.602741,25.5371677 120.77336,24.4532516 121.11287,23.4972978 C121.453532,22.539028 121.963661,21.7092995 122.644409,21.0069543 C123.324581,20.30403 124.127529,19.7771264 125.054407,19.4262433 C125.97898,19.0753602 127.026329,18.9004976 128.195878,18.9004976 C129.364851,18.9004976 130.410471,19.0742021 131.332161,19.4227692 C132.256734,19.7719152 133.056224,20.2959238 133.730631,20.995953 C134.405039,21.6959821 134.912285,22.5257106 135.250066,23.4862965 C135.586693,24.4439874 135.755583,25.5319566 135.755583,26.7490462 C135.755583,29.1826463 135.07887,31.1038181 133.725443,32.5183518 C133.047577,33.2264871 132.246935,33.7574439 131.324091,34.1118011 C130.402978,34.4650002 129.36024,34.6415998 128.195878,34.6415998" id="Fill-4" fill="#FEFEFE"/>
                        <path d="M77.2370116,32.0609878 L80.2874087,32.0609878 L80.3744476,32.0609878 L80.3744476,32.1489981 L80.3744476,34.1633913 L80.3744476,34.2514016 L80.2874087,34.2514016 L72.0705888,34.2514016 L71.9829735,34.2514016 L71.9829735,34.1633913 L71.9829735,32.1489981 L71.9829735,32.0609878 L72.0705888,32.0609878 L74.4413907,32.0609878 L74.4413907,21.3839509 L72.0705888,21.3839509 L71.9829735,21.3839509 L71.9829735,21.2953616 L71.9829735,19.3458181 L71.9829735,19.2578078 L72.0705888,19.2578078 L77.2370116,19.2578078 L77.2370116,21.3457359 C77.4531678,21.0122233 77.6825817,20.7128725 77.9269824,20.4488417 C78.2734088,20.074219 78.6480796,19.7696571 79.0515713,19.535156 C79.4527573,19.3012339 79.9017859,19.1263714 80.3986571,19.0094104 C80.8961047,18.8930283 81.4419713,18.8351268 82.0339513,18.8351268 C82.2437669,18.8351268 82.4045872,18.8351268 82.5129535,18.840917 L82.5129535,18.840917 C82.5711716,18.8438121 82.6253548,18.8496022 82.6766559,18.8571294 C82.7262277,18.8646566 82.7769524,18.8750789 82.8294063,18.8866592 L82.8979999,18.9017136 L82.8979999,18.9723534 L82.8979999,21.3607903 L82.8979999,21.4615389 L82.7982798,21.4470636 L82.7977034,21.4470636 C82.7233456,21.4366413 82.5740537,21.4152177 82.3423342,21.388004 C82.2322386,21.3752657 82.1348242,21.3660015 82.0500909,21.3602113 C81.9584407,21.3538421 81.880048,21.3509471 81.8131837,21.3509471 C81.0436674,21.3509471 80.3709891,21.465592 79.7980309,21.695461 C79.2296841,21.9230139 78.7575988,22.2652118 78.3811987,22.7220546 L78.3806223,22.7220546 C78.0013401,23.1806345 77.7160139,23.7550174 77.5252199,24.4457823 C77.3332732,25.1400213 77.2370116,25.9518004 77.2370116,26.8793824 L77.2370116,32.0609878 Z" id="Fill-8" fill="#FEFEFE"/>
                        <path d="M68.6425811,29.1037265 L71.1009983,29.1037265 L71.2007184,29.1037265 L71.1874608,29.2033171 C71.0646841,30.1065805 70.8346938,30.896936 70.4957608,31.5755416 C70.1556749,32.2564633 69.7077992,32.823898 69.1504042,33.2784248 L69.1504042,33.2784248 C68.5912801,33.7329516 67.9232131,34.0734124 67.145627,34.3015443 C66.370923,34.5279392 65.4878526,34.6414261 64.4964159,34.6414261 C63.3775911,34.6414261 62.3723204,34.4630895 61.4782981,34.1064162 C60.5836994,33.748585 59.8020784,33.2124171 59.1328586,32.4961755 L59.1328586,32.4955965 C58.466521,31.7805129 57.9667677,30.9397831 57.6335988,29.9745651 C57.3015828,29.0110841 57.1355748,27.925431 57.1355748,26.7170266 C57.1355748,25.5213606 57.3015828,24.4472878 57.6330224,23.4942291 C57.9661913,22.5400123 58.4642153,21.7073887 59.1270945,20.9969373 C59.7911265,20.2864859 60.5675598,19.7549501 61.4569707,19.4000139 C62.3469581,19.0450777 63.347041,18.8678991 64.4583724,18.8678991 C64.9269992,18.8678991 65.3737221,18.9130623 65.799694,19.0028096 C66.2285481,19.0925569 66.6343454,19.2274674 67.0188153,19.4069621 L67.0193918,19.4069621 C67.4032853,19.5887728 67.7566287,19.8134306 68.0817277,20.0815146 C68.3439973,20.2980662 68.5878216,20.5429895 68.8137769,20.8162846 L68.8137769,19.3455865 L68.8137769,19.2575762 L68.9013922,19.2575762 L70.8421872,19.2575762 L70.9298026,19.2575762 L70.9298026,19.3455865 L70.9298026,24.9348184 L70.9298026,25.0228287 L70.8421872,25.0228287 L68.8691129,25.0228287 L68.7855325,25.0228287 L68.7814976,24.9388715 C68.7549824,24.3349589 68.6443104,23.7958959 68.4471759,23.3245777 C68.2511942,22.8549965 67.9699029,22.450844 67.602149,22.1126992 L67.6015726,22.1126992 C67.2338188,21.7722384 66.8032355,21.5168928 66.3103992,21.3472414 C65.8158337,21.1764319 65.2578624,21.0913167 64.6364852,21.0913167 C63.9309511,21.0913167 63.3009277,21.215805 62.7469913,21.4653604 C62.1947841,21.7137579 61.7163582,22.0872226 61.3128666,22.5857545 L61.3128666,22.5857545 C60.9076456,23.0842864 60.6027212,23.6766188 60.3992461,24.3644886 C60.1951946,25.0540955 60.0925924,25.8398189 60.0925924,26.7222378 C60.0925924,27.6046566 60.1940418,28.39038 60.3952112,29.0799869 C60.5963806,29.7678567 60.8966937,30.3613471 61.2973033,30.8593 C61.6956072,31.357253 62.1671161,31.7307176 62.710677,31.9791151 C63.2553908,32.2286706 63.8750387,32.3531588 64.5667388,32.3531588 C65.1114525,32.3531588 65.6089001,32.282519 66.0585051,32.1406603 C66.5046517,31.9999596 66.9041084,31.7886191 67.256299,31.5060598 C67.6061839,31.2235005 67.8903574,30.8870928 68.1076665,30.4991527 C68.3243991,30.1106336 68.4748439,29.6700032 68.5566951,29.1772614 L68.5682234,29.1037265 L68.6425811,29.1037265 Z" id="Fill-10" fill="#FEFEFE"/>
                        <path d="M39.902791,34.163565 L39.902791,32.1491718 L39.902791,32.0611615 L39.9898299,32.0611615 L42.3617846,32.0611615 L42.3617846,21.3835456 L39.9898299,21.3835456 L39.902791,21.3835456 L39.902791,21.2955353 L39.902791,19.3459918 L39.902791,19.2574025 L39.9898299,19.2574025 L45.1568291,19.2574025 L45.1568291,21.4981906 C45.42371,21.1363062 45.7009664,20.8126368 45.9885984,20.5277614 C46.3707626,20.1479276 46.7707958,19.8369965 47.1875451,19.5943892 L47.1881215,19.5943892 C47.6077528,19.3517819 48.0585107,19.1699712 48.540395,19.0489571 C49.021703,18.928522 49.5347138,18.8677254 50.0776983,18.8677254 C50.9711442,18.8677254 51.7487303,18.9765802 52.4104567,19.1937108 C53.0767944,19.4125785 53.6266959,19.7426171 54.0601612,20.1832475 C54.4907445,20.6209828 54.8129614,21.1826274 55.026812,21.8687602 C55.2400862,22.5496819 55.3467233,23.3527757 55.3467233,24.2797787 L55.3467233,32.0611615 L57.7503809,32.0611615 L57.8374198,32.0611615 L57.8374198,32.1491718 L57.8374198,34.163565 L57.8374198,34.2515753 L57.7503809,34.2515753 L49.9214894,34.2515753 L49.8338741,34.2515753 L49.8338741,34.163565 L49.8338741,32.1491718 L49.8338741,32.0611615 L49.9214894,32.0611615 L52.5511023,32.0611615 L52.5511023,24.2797787 C52.5511023,23.7279774 52.4853908,23.2468159 52.3545443,22.8345572 C52.2242741,22.4263517 52.0300217,22.0853118 51.771787,21.8108587 C51.5123995,21.5393007 51.1884533,21.3360664 50.8011013,21.1994188 C50.4102908,21.0621923 49.9531923,20.9932895 49.4309588,20.9932895 C48.7836429,20.9932895 48.201462,21.0969332 47.6838398,21.3047996 C47.1679469,21.5115079 46.714307,21.822439 46.3246493,22.2387508 L46.3246493,22.2381718 C45.9367209,22.6544836 45.645054,23.1408562 45.4502252,23.6967106 C45.2548199,24.2543021 45.1568291,24.8825334 45.1568291,25.5790884 L45.1568291,32.0611615 L47.8187214,32.0611615 L47.9069131,32.0611615 L47.9069131,32.1491718 L47.9069131,34.163565 L47.9069131,34.2515753 L47.8187214,34.2515753 L39.9898299,34.2515753 L39.902791,34.2515753 L39.902791,34.163565 Z" id="Fill-12" fill="#FEFEFE"/>
                        <path d="M32.3423944,32.3533325 C33.0675266,32.3533325 33.7142662,32.2300023 34.2803073,31.9827629 C34.8457721,31.7366815 35.3328442,31.3666909 35.7415236,30.8739491 L35.7415236,30.8739491 C36.1519323,30.3823654 36.4608917,29.790033 36.6666724,29.0992681 C36.873606,28.4061871 36.9779374,27.6129366 36.9779374,26.7224115 C36.9779374,24.9448354 36.569258,23.5557783 35.753052,22.5702948 C35.3437961,22.076974 34.8561476,21.7075624 34.28953,21.460902 C33.7211832,21.2148206 33.0727144,21.0909114 32.3423944,21.0909114 C31.6126509,21.0909114 30.9636057,21.2148206 30.3958353,21.460902 C29.8292177,21.7075624 29.3409928,22.076974 28.9317369,22.5702948 C28.5247867,23.0612995 28.2192859,23.6530529 28.0152344,24.3426598 C27.81003,25.0363197 27.7068514,25.8307283 27.7068514,26.7224115 C27.7068514,27.6181477 27.8094536,28.4137143 28.0135051,29.1085323 C28.2169802,29.8004553 28.5219046,30.3927876 28.9271256,30.8849504 C29.3300408,31.3747971 29.8153837,31.7407346 30.3825777,31.9850789 C30.9526538,32.2311603 31.6068868,32.3533325 32.3423944,32.3533325 M32.3423944,34.6415998 C31.172845,34.6415998 30.1254959,34.4650002 29.2009235,34.1112221 C28.2740455,33.7562859 27.471097,33.2235921 26.7909253,32.5125616 C26.1107536,31.8021102 25.6006249,30.9660125 25.2599626,30.0036896 C24.9198768,29.0436827 24.7498338,27.9586085 24.7498338,26.7490462 C24.7498338,25.5371677 24.9198768,24.4532516 25.2599626,23.4972978 C25.6006249,22.539028 26.1107536,21.7092995 26.7909253,21.0069543 C27.4716734,20.30403 28.2746219,19.7771264 29.2014999,19.4262433 C30.1260723,19.0753602 31.1734214,18.9004976 32.3423944,18.9004976 C33.5119439,18.9004976 34.5575638,19.0742021 35.4792541,19.4227692 C36.40325,19.7719152 37.2027399,20.2959238 37.8777239,20.995953 C38.5521314,21.6959821 39.0588017,22.5257106 39.3965819,23.4862965 C39.7337856,24.4439874 39.9026757,25.5319566 39.9026757,26.7490462 C39.9026757,29.1826463 39.2259625,31.1038181 37.8725361,32.5183518 C37.1946701,33.2264871 36.3940273,33.7574439 35.4711842,34.1118011 C34.5494939,34.4650002 33.5073326,34.6415998 32.3423944,34.6415998" id="Fill-14" fill="#FEFEFE"/>
                        <path d="M156.154854,15.3229955 L154.26536,15.3229955 L153.380561,15.3229955 L153.292945,15.3229955 L153.292945,15.2355642 L153.292945,13.1679016 L153.292945,13.0804703 L153.380561,13.0804703 L159.159138,13.0804703 L162.021047,13.0804703 L162.021047,15.3229955 L159.457145,15.3229955 L159.159138,15.3229955 L156.154854,15.3229955 Z" id="Fill-16" fill="#FEFEFE"/>
                        <path d="M153.293061,34.164144 L153.293061,31.9997859 L153.293061,31.9123547 L153.3801,31.9123547 L156.15497,31.9123547 L156.15497,16.733476 L159.159253,16.733476 L159.159253,20.6308261 L159.159253,22.3186549 L159.159253,24.6254507 L159.159253,31.9123547 L162.021162,31.9123547 L162.021162,34.2457852 L159.159253,34.2457852 L153.3801,34.2515753 L153.293061,34.2515753 L153.293061,34.164144 Z" id="Fill-18" fill="#FEFEFE"/>
                        <path d="M90.8706496,13.0807019 L101.341259,13.0807019 L101.428298,13.0807019 L101.428298,13.1681332 L101.428298,19.4990834 L101.428298,19.5865146 L101.341259,19.5865146 L98.99409,19.5865146 L98.9064747,19.5865146 L98.9064747,19.4990834 L98.9064747,15.3232271 L90.8706496,15.3232271 L90.8706496,13.0807019 Z" id="Fill-20" fill="#FEFEFE"/>
                        <path d="M83.600133,34.164144 L83.600133,31.9997859 L83.600133,31.9123547 L83.687172,31.9123547 L86.4626183,31.9123547 L86.4626183,15.3229955 L83.687172,15.3229955 L83.600133,15.3229955 L83.600133,15.2355642 L83.600133,13.1679016 L83.600133,13.0804703 L83.687172,13.0804703 L89.4663257,13.0804703 L89.4663257,15.3229955 L89.4663257,20.6308261 L89.4663257,22.3186549 L94.0188646,22.3186549 L94.0188646,19.3378856 L94.0188646,19.2504543 L94.10648,19.2504543 L96.3251078,19.2504543 L96.4121467,19.2504543 L96.4121467,19.3378856 L96.4121467,27.606799 L96.4121467,27.6942303 L96.3251078,27.6942303 L94.10648,27.6942303 L94.0188646,27.6942303 L94.0188646,27.606799 L94.0188646,24.6254507 L89.4663257,24.6254507 L89.4663257,31.9123547 L98.9068781,31.9123547 L98.9068781,27.5419493 L98.9068781,27.4550971 L98.9939171,27.4550971 L101.341086,27.4550971 L101.428701,27.4550971 L101.428701,27.5419493 L101.428701,34.164144 L101.428701,34.2515753 L101.341086,34.2515753 L83.687172,34.2515753 L83.600133,34.2515753 L83.600133,34.164144 Z" id="Fill-22" fill="#FEFEFE"/>
                        <path d="M4.79204013,20.6525971 C4.8981008,20.1204823 5.0329823,19.6109491 5.19841389,19.1239974 C5.65551232,17.7772085 6.3420246,16.6064401 7.25852713,15.6122714 C8.17618249,14.6175236 9.25465811,13.8711732 10.4951068,13.3737993 C11.7332499,12.8770044 13.1322132,12.628607 14.6914203,12.628607 C16.1070997,12.628607 17.3567711,12.86195 18.4346703,13.3303732 C18.9741963,13.5642952 19.4895128,13.862488 19.9806198,14.2237934 C20.4158144,14.5445677 20.8337165,14.9157163 21.2337497,15.3372392 L21.2337497,13.168249 L21.2337497,13.0808177 L21.321365,13.0808177 L23.6045515,13.0808177 L23.6915905,13.0808177 L23.6915905,13.168249 L23.6915905,20.5651658 L23.6915905,20.6525971 L23.6045515,20.6525971 L21.1928241,20.6525971 L21.1115494,20.6525971 L21.1057852,20.5709559 C21.0452614,19.7059075 20.8619609,18.9323435 20.5593422,18.2508428 C20.2549942,17.5676051 19.8295986,16.9752727 19.2854613,16.4738457 C18.7384419,15.9724187 18.1107241,15.5960589 17.402308,15.3447664 C16.692739,15.0934739 15.9007425,14.9678276 15.0292005,14.9678276 C12.7512017,14.9678276 10.9556638,15.7217052 9.63336388,17.2311973 C8.97163752,17.9868119 8.47534275,18.8813901 8.14332674,19.9149319 C8.06723974,20.1534861 7.99922257,20.3995675 7.94100449,20.6525971 L4.79204013,20.6525971 Z" id="Fill-24" fill="#FEFEFE"/>
                        <path d="M20.838789,26.9702878 L23.8292388,26.9702878 L23.9249239,26.9702878 L23.9162777,27.0664043 C23.7940773,28.3095495 23.5116332,29.4050459 23.0666395,30.3528935 C22.620493,31.3030572 22.0112205,32.1044139 21.2376693,32.7558058 L21.2370929,32.7558058 C20.4675766,33.4060397 19.5528034,33.8935703 18.4927731,34.2178187 C17.4333192,34.5420671 16.2303376,34.7036123 14.8844046,34.7036123 C13.2773549,34.7036123 11.8409245,34.45811 10.5733842,33.9676842 C9.3052675,33.4766795 8.20892296,32.7395934 7.28550343,31.758163 C6.36093106,30.7773115 5.66692537,29.6129123 5.20463919,28.2661234 C4.74350584,26.9222295 4.51293917,25.395946 4.51293917,23.6878517 C4.51293917,23.1273651 4.53772508,22.5854071 4.58787333,22.0631355 L7.71147536,22.0631355 C7.66709128,22.505503 7.64518744,22.9658199 7.64518744,23.4452444 C7.64518744,26.2395708 8.30287888,28.4172463 9.61826176,29.9730597 C10.2736475,30.7483608 11.0569978,31.3296918 11.9677362,31.7176319 C12.8802038,32.105572 13.9229416,32.300121 15.0930675,32.300121 C16.6413227,32.300121 17.8967582,31.8554375 18.8559156,30.9666494 C19.3377999,30.5213869 19.7366803,29.9736387 20.0519802,29.3210888 C20.3690094,28.6668018 20.6018817,27.9071341 20.7534793,27.0426647 L20.7661605,26.9702878 L20.838789,26.9702878 Z" id="Fill-26" fill="#FEFEFE"/>
                        <path d="M0,0 L166,0 L166,33.7027027 L0,33.7027027 L0,0 Z" id="Fill-31" fill="#555555"/>
                        <path d="M0,43 L166,43 L166,36.027027 L0,36.027027 L0,43 Z" id="Fill-33" fill="#F4811F"/>
                        <path d="M142.44755,34.2515174 L135.492506,34.2515174 L135.404891,34.2515174 L135.404891,34.1635071 L135.404891,32.1491139 L135.404891,32.0611036 L135.492506,32.0611036 L137.033845,32.0611036 L142.138591,26.5014014 L137.234438,21.3834877 L135.783597,21.3834877 L135.695981,21.3834877 L135.695981,21.2954774 L135.695981,19.3459339 L135.695981,19.2573446 L135.783597,19.2573446 L142.803199,19.2573446 L142.891391,19.2573446 L142.891391,19.3459339 L142.891391,21.2954774 L142.891391,21.3834877 L142.803199,21.3834877 L140.747697,21.3834877 L144.121464,25.0463367 L147.363232,21.3834877 L145.293896,21.3834877 L145.20628,21.3834877 L145.20628,21.2954774 L145.20628,19.3459339 L145.20628,19.2573446 L145.293896,19.2573446 L151.89329,19.2573446 L151.980906,19.2573446 L151.980906,19.3459339 L151.980906,21.2954774 L151.980906,21.3834877 L151.89329,21.3834877 L150.411899,21.3834877 L145.6922,26.7312704 L150.610763,32.0611036 L152.152101,32.0611036 L152.239717,32.0611036 L152.239717,32.1491139 L152.239717,34.1635071 L152.239717,34.2515174 L152.152101,34.2515174 L144.970526,34.2515174 L144.883487,34.2515174 L144.883487,34.1635071 L144.883487,32.1491139 L144.883487,32.0611036 L144.970526,32.0611036 L147.110185,32.0611036 L143.704139,28.219339 L140.313079,32.0611036 L142.44755,32.0611036 L142.534589,32.0611036 L142.534589,32.1491139 L142.534589,34.1635071 L142.534589,34.2515174 L142.44755,34.2515174 Z" id="Fill-34" fill="#FEFEFE"/>
                        <path d="M128.195878,32.3533325 C128.920434,32.3533325 129.567173,32.2300023 130.133791,31.9827629 C130.699256,31.7366815 131.186328,31.3666909 131.595007,30.8739491 L131.595007,30.8739491 C132.005416,30.3823654 132.314375,29.790033 132.520156,29.0992681 C132.72709,28.4061871 132.830845,27.6129366 132.830845,26.7224115 C132.830845,24.9448354 132.422742,23.5557783 131.605959,22.5702948 C131.196703,22.076974 130.709055,21.7075624 130.142437,21.460902 C129.574667,21.2148206 128.925622,21.0909114 128.195878,21.0909114 C127.465558,21.0909114 126.816513,21.2148206 126.248743,21.460902 C125.682125,21.7075624 125.1939,22.076974 124.785221,22.5702948 C124.37827,23.0612995 124.072193,23.6530529 123.868142,24.3426598 C123.662937,25.0363197 123.560335,25.8307283 123.560335,26.7224115 C123.560335,27.6181477 123.662937,28.4137143 123.866412,29.1085323 C124.070464,29.8004553 124.374812,30.3927876 124.780033,30.8849504 C125.182948,31.3747971 125.668291,31.7407346 126.235485,31.9850789 C126.805561,32.2311603 127.459794,32.3533325 128.195878,32.3533325 M128.195878,34.6415998 C127.025752,34.6415998 125.97898,34.4650002 125.054407,34.1112221 C124.127529,33.7562859 123.324581,33.2235921 122.643833,32.5125616 C121.963661,31.8021102 121.453532,30.9660125 121.11287,30.0036896 C120.77336,29.0436827 120.602741,27.9586085 120.602741,26.7490462 C120.602741,25.5371677 120.77336,24.4532516 121.11287,23.4972978 C121.453532,22.539028 121.963661,21.7092995 122.644409,21.0069543 C123.324581,20.30403 124.127529,19.7771264 125.054407,19.4262433 C125.97898,19.0753602 127.026329,18.9004976 128.195878,18.9004976 C129.364851,18.9004976 130.410471,19.0742021 131.332161,19.4227692 C132.256734,19.7719152 133.056224,20.2959238 133.730631,20.995953 C134.405039,21.6959821 134.912285,22.5257106 135.250066,23.4862965 C135.586693,24.4439874 135.755583,25.5319566 135.755583,26.7490462 C135.755583,29.1826463 135.07887,31.1038181 133.725443,32.5183518 C133.047577,33.2264871 132.246935,33.7574439 131.324091,34.1118011 C130.402978,34.4650002 129.36024,34.6415998 128.195878,34.6415998" id="Fill-35" fill="#FEFEFE"/>
                        <path d="M116.726627,25.0045318 C116.079888,19.2751782 107.633654,20.230553 107.738562,26.2216214 C107.751243,26.9158604 107.868832,27.4300257 108.071154,28.0269902 C109.800981,33.1205853 116.312183,32.2688542 116.742767,26.4155914 C116.777352,25.9460102 116.779081,25.4717969 116.726627,25.0045318 M119.703819,25.0045318 C119.736099,25.473534 119.733793,25.9460102 119.703243,26.4155914 C119.235769,33.5988517 111.39362,36.2877974 107.73568,30.8861663 L107.73568,37.7428621 L110.134149,37.7428621 L110.134149,39.9332759 L102.832679,39.9332759 L102.832679,37.7428621 L104.940635,37.7428621 L104.940635,21.3839509 L102.569257,21.3839509 L102.481642,21.3839509 L102.481642,21.2953616 L102.481642,19.3458181 L102.481642,19.2578078 L102.569257,19.2578078 L107.73568,19.2578078 L107.73568,20.8124631 L107.73568,21.7203587 C111.474895,16.5329631 119.249603,18.3371739 119.703819,25.0045318" id="Fill-36" fill="#FEFEFE"/>
                        <path d="M77.2370116,32.0609878 L80.2874087,32.0609878 L80.3744476,32.0609878 L80.3744476,32.1489981 L80.3744476,34.1633913 L80.3744476,34.2514016 L80.2874087,34.2514016 L72.0705888,34.2514016 L71.9829735,34.2514016 L71.9829735,34.1633913 L71.9829735,32.1489981 L71.9829735,32.0609878 L72.0705888,32.0609878 L74.4413907,32.0609878 L74.4413907,21.3839509 L72.0705888,21.3839509 L71.9829735,21.3839509 L71.9829735,21.2953616 L71.9829735,19.3458181 L71.9829735,19.2578078 L72.0705888,19.2578078 L77.2370116,19.2578078 L77.2370116,21.3457359 C77.4531678,21.0122233 77.6825817,20.7128725 77.9269824,20.4488417 C78.2734088,20.074219 78.6480796,19.7696571 79.0515713,19.535156 C79.4527573,19.3012339 79.9017859,19.1263714 80.3986571,19.0094104 C80.8961047,18.8930283 81.4419713,18.8351268 82.0339513,18.8351268 C82.2437669,18.8351268 82.4045872,18.8351268 82.5129535,18.840917 L82.5129535,18.840917 C82.5711716,18.8438121 82.6253548,18.8496022 82.6766559,18.8571294 C82.7262277,18.8646566 82.7769524,18.8750789 82.8294063,18.8866592 L82.8979999,18.9017136 L82.8979999,18.9723534 L82.8979999,21.3607903 L82.8979999,21.4615389 L82.7982798,21.4470636 L82.7977034,21.4470636 C82.7233456,21.4366413 82.5740537,21.4152177 82.3423342,21.388004 C82.2322386,21.3752657 82.1348242,21.3660015 82.0500909,21.3602113 C81.9584407,21.3538421 81.880048,21.3509471 81.8131837,21.3509471 C81.0436674,21.3509471 80.3709891,21.465592 79.7980309,21.695461 C79.2296841,21.9230139 78.7575988,22.2652118 78.3811987,22.7220546 L78.3806223,22.7220546 C78.0013401,23.1806345 77.7160139,23.7550174 77.5252199,24.4457823 C77.3332732,25.1400213 77.2370116,25.9518004 77.2370116,26.8793824 L77.2370116,32.0609878 Z" id="Fill-37" fill="#FEFEFE"/>
                        <path d="M68.6425811,29.1037265 L71.1009983,29.1037265 L71.2007184,29.1037265 L71.1874608,29.2033171 C71.0646841,30.1065805 70.8346938,30.896936 70.4957608,31.5755416 C70.1556749,32.2564633 69.7077992,32.823898 69.1504042,33.2784248 L69.1504042,33.2784248 C68.5912801,33.7329516 67.9232131,34.0734124 67.145627,34.3015443 C66.370923,34.5279392 65.4878526,34.6414261 64.4964159,34.6414261 C63.3775911,34.6414261 62.3723204,34.4630895 61.4782981,34.1064162 C60.5836994,33.748585 59.8020784,33.2124171 59.1328586,32.4961755 L59.1328586,32.4955965 C58.466521,31.7805129 57.9667677,30.9397831 57.6335988,29.9745651 C57.3015828,29.0110841 57.1355748,27.925431 57.1355748,26.7170266 C57.1355748,25.5213606 57.3015828,24.4472878 57.6330224,23.4942291 C57.9661913,22.5400123 58.4642153,21.7073887 59.1270945,20.9969373 C59.7911265,20.2864859 60.5675598,19.7549501 61.4569707,19.4000139 C62.3469581,19.0450777 63.347041,18.8678991 64.4583724,18.8678991 C64.9269992,18.8678991 65.3737221,18.9130623 65.799694,19.0028096 C66.2285481,19.0925569 66.6343454,19.2274674 67.0188153,19.4069621 L67.0193918,19.4069621 C67.4032853,19.5887728 67.7566287,19.8134306 68.0817277,20.0815146 C68.3439973,20.2980662 68.5878216,20.5429895 68.8137769,20.8162846 L68.8137769,19.3455865 L68.8137769,19.2575762 L68.9013922,19.2575762 L70.8421872,19.2575762 L70.9298026,19.2575762 L70.9298026,19.3455865 L70.9298026,24.9348184 L70.9298026,25.0228287 L70.8421872,25.0228287 L68.8691129,25.0228287 L68.7855325,25.0228287 L68.7814976,24.9388715 C68.7549824,24.3349589 68.6443104,23.7958959 68.4471759,23.3245777 C68.2511942,22.8549965 67.9699029,22.450844 67.602149,22.1126992 L67.6015726,22.1126992 C67.2338188,21.7722384 66.8032355,21.5168928 66.3103992,21.3472414 C65.8158337,21.1764319 65.2578624,21.0913167 64.6364852,21.0913167 C63.9309511,21.0913167 63.3009277,21.215805 62.7469913,21.4653604 C62.1947841,21.7137579 61.7163582,22.0872226 61.3128666,22.5857545 L61.3128666,22.5857545 C60.9076456,23.0842864 60.6027212,23.6766188 60.3992461,24.3644886 C60.1951946,25.0540955 60.0925924,25.8398189 60.0925924,26.7222378 C60.0925924,27.6046566 60.1940418,28.39038 60.3952112,29.0799869 C60.5963806,29.7678567 60.8966937,30.3613471 61.2973033,30.8593 C61.6956072,31.357253 62.1671161,31.7307176 62.710677,31.9791151 C63.2553908,32.2286706 63.8750387,32.3531588 64.5667388,32.3531588 C65.1114525,32.3531588 65.6089001,32.282519 66.0585051,32.1406603 C66.5046517,31.9999596 66.9041084,31.7886191 67.256299,31.5060598 C67.6061839,31.2235005 67.8903574,30.8870928 68.1076665,30.4991527 C68.3243991,30.1106336 68.4748439,29.6700032 68.5566951,29.1772614 L68.5682234,29.1037265 L68.6425811,29.1037265 Z" id="Fill-38" fill="#FEFEFE"/>
                        <path d="M39.902791,34.163565 L39.902791,32.1491718 L39.902791,32.0611615 L39.9898299,32.0611615 L42.3617846,32.0611615 L42.3617846,21.3835456 L39.9898299,21.3835456 L39.902791,21.3835456 L39.902791,21.2955353 L39.902791,19.3459918 L39.902791,19.2574025 L39.9898299,19.2574025 L45.1568291,19.2574025 L45.1568291,21.4981906 C45.42371,21.1363062 45.7009664,20.8126368 45.9885984,20.5277614 C46.3707626,20.1479276 46.7707958,19.8369965 47.1875451,19.5943892 L47.1881215,19.5943892 C47.6077528,19.3517819 48.0585107,19.1699712 48.540395,19.0489571 C49.021703,18.928522 49.5347138,18.8677254 50.0776983,18.8677254 C50.9711442,18.8677254 51.7487303,18.9765802 52.4104567,19.1937108 C53.0767944,19.4125785 53.6266959,19.7426171 54.0601612,20.1832475 C54.4907445,20.6209828 54.8129614,21.1826274 55.026812,21.8687602 C55.2400862,22.5496819 55.3467233,23.3527757 55.3467233,24.2797787 L55.3467233,32.0611615 L57.7503809,32.0611615 L57.8374198,32.0611615 L57.8374198,32.1491718 L57.8374198,34.163565 L57.8374198,34.2515753 L57.7503809,34.2515753 L49.9214894,34.2515753 L49.8338741,34.2515753 L49.8338741,34.163565 L49.8338741,32.1491718 L49.8338741,32.0611615 L49.9214894,32.0611615 L52.5511023,32.0611615 L52.5511023,24.2797787 C52.5511023,23.7279774 52.4853908,23.2468159 52.3545443,22.8345572 C52.2242741,22.4263517 52.0300217,22.0853118 51.771787,21.8108587 C51.5123995,21.5393007 51.1884533,21.3360664 50.8011013,21.1994188 C50.4102908,21.0621923 49.9531923,20.9932895 49.4309588,20.9932895 C48.7836429,20.9932895 48.201462,21.0969332 47.6838398,21.3047996 C47.1679469,21.5115079 46.714307,21.822439 46.3246493,22.2387508 L46.3246493,22.2381718 C45.9367209,22.6544836 45.645054,23.1408562 45.4502252,23.6967106 C45.2548199,24.2543021 45.1568291,24.8825334 45.1568291,25.5790884 L45.1568291,32.0611615 L47.8187214,32.0611615 L47.9069131,32.0611615 L47.9069131,32.1491718 L47.9069131,34.163565 L47.9069131,34.2515753 L47.8187214,34.2515753 L39.9898299,34.2515753 L39.902791,34.2515753 L39.902791,34.163565 Z" id="Fill-39" fill="#FEFEFE"/>
                        <path d="M32.3423944,32.3533325 C33.0675266,32.3533325 33.7142662,32.2300023 34.2803073,31.9827629 C34.8457721,31.7366815 35.3328442,31.3666909 35.7415236,30.8739491 L35.7415236,30.8739491 C36.1519323,30.3823654 36.4608917,29.790033 36.6666724,29.0992681 C36.873606,28.4061871 36.9779374,27.6129366 36.9779374,26.7224115 C36.9779374,24.9448354 36.569258,23.5557783 35.753052,22.5702948 C35.3437961,22.076974 34.8561476,21.7075624 34.28953,21.460902 C33.7211832,21.2148206 33.0727144,21.0909114 32.3423944,21.0909114 C31.6126509,21.0909114 30.9636057,21.2148206 30.3958353,21.460902 C29.8292177,21.7075624 29.3409928,22.076974 28.9317369,22.5702948 C28.5247867,23.0612995 28.2192859,23.6530529 28.0152344,24.3426598 C27.81003,25.0363197 27.7068514,25.8307283 27.7068514,26.7224115 C27.7068514,27.6181477 27.8094536,28.4137143 28.0135051,29.1085323 C28.2169802,29.8004553 28.5219046,30.3927876 28.9271256,30.8849504 C29.3300408,31.3747971 29.8153837,31.7407346 30.3825777,31.9850789 C30.9526538,32.2311603 31.6068868,32.3533325 32.3423944,32.3533325 M32.3423944,34.6415998 C31.172845,34.6415998 30.1254959,34.4650002 29.2009235,34.1112221 C28.2740455,33.7562859 27.471097,33.2235921 26.7909253,32.5125616 C26.1107536,31.8021102 25.6006249,30.9660125 25.2599626,30.0036896 C24.9198768,29.0436827 24.7498338,27.9586085 24.7498338,26.7490462 C24.7498338,25.5371677 24.9198768,24.4532516 25.2599626,23.4972978 C25.6006249,22.539028 26.1107536,21.7092995 26.7909253,21.0069543 C27.4716734,20.30403 28.2746219,19.7771264 29.2014999,19.4262433 C30.1260723,19.0753602 31.1734214,18.9004976 32.3423944,18.9004976 C33.5119439,18.9004976 34.5575638,19.0742021 35.4792541,19.4227692 C36.40325,19.7719152 37.2027399,20.2959238 37.8777239,20.995953 C38.5521314,21.6959821 39.0588017,22.5257106 39.3965819,23.4862965 C39.7337856,24.4439874 39.9026757,25.5319566 39.9026757,26.7490462 C39.9026757,29.1826463 39.2259625,31.1038181 37.8725361,32.5183518 C37.1946701,33.2264871 36.3940273,33.7574439 35.4711842,34.1118011 C34.5494939,34.4650002 33.5073326,34.6415998 32.3423944,34.6415998" id="Fill-40" fill="#FEFEFE"/>
                        <path d="M156.154854,15.3229955 L154.26536,15.3229955 L153.380561,15.3229955 L153.292945,15.3229955 L153.292945,15.2355642 L153.292945,13.1679016 L153.292945,13.0804703 L153.380561,13.0804703 L159.159138,13.0804703 L162.021047,13.0804703 L162.021047,15.3229955 L159.457145,15.3229955 L159.159138,15.3229955 L156.154854,15.3229955 Z" id="Fill-41" fill="#FEFEFE"/>
                        <path d="M153.293061,34.164144 L153.293061,31.9997859 L153.293061,31.9123547 L153.3801,31.9123547 L156.15497,31.9123547 L156.15497,16.733476 L159.159253,16.733476 L159.159253,20.6308261 L159.159253,22.3186549 L159.159253,24.6254507 L159.159253,31.9123547 L162.021162,31.9123547 L162.021162,34.2457852 L159.159253,34.2457852 L153.3801,34.2515753 L153.293061,34.2515753 L153.293061,34.164144 Z" id="Fill-42" fill="#FEFEFE"/>
                        <path d="M90.8706496,13.0807019 L101.341259,13.0807019 L101.428298,13.0807019 L101.428298,13.1681332 L101.428298,19.4990834 L101.428298,19.5865146 L101.341259,19.5865146 L98.99409,19.5865146 L98.9064747,19.5865146 L98.9064747,19.4990834 L98.9064747,15.3232271 L90.8706496,15.3232271 L90.8706496,13.0807019 Z" id="Fill-43" fill="#FEFEFE"/>
                        <path d="M83.600133,34.164144 L83.600133,31.9997859 L83.600133,31.9123547 L83.687172,31.9123547 L86.4626183,31.9123547 L86.4626183,15.3229955 L83.687172,15.3229955 L83.600133,15.3229955 L83.600133,15.2355642 L83.600133,13.1679016 L83.600133,13.0804703 L83.687172,13.0804703 L89.4663257,13.0804703 L89.4663257,15.3229955 L89.4663257,20.6308261 L89.4663257,22.3186549 L94.0188646,22.3186549 L94.0188646,19.3378856 L94.0188646,19.2504543 L94.10648,19.2504543 L96.3251078,19.2504543 L96.4121467,19.2504543 L96.4121467,19.3378856 L96.4121467,27.606799 L96.4121467,27.6942303 L96.3251078,27.6942303 L94.10648,27.6942303 L94.0188646,27.6942303 L94.0188646,27.606799 L94.0188646,24.6254507 L89.4663257,24.6254507 L89.4663257,31.9123547 L98.9068781,31.9123547 L98.9068781,27.5419493 L98.9068781,27.4550971 L98.9939171,27.4550971 L101.341086,27.4550971 L101.428701,27.4550971 L101.428701,27.5419493 L101.428701,34.164144 L101.428701,34.2515753 L101.341086,34.2515753 L83.687172,34.2515753 L83.600133,34.2515753 L83.600133,34.164144 Z" id="Fill-44" fill="#FEFEFE"/>
                        <path d="M4.79204013,20.6525971 C4.8981008,20.1204823 5.0329823,19.6109491 5.19841389,19.1239974 C5.65551232,17.7772085 6.3420246,16.6064401 7.25852713,15.6122714 C8.17618249,14.6175236 9.25465811,13.8711732 10.4951068,13.3737993 C11.7332499,12.8770044 13.1322132,12.628607 14.6914203,12.628607 C16.1070997,12.628607 17.3567711,12.86195 18.4346703,13.3303732 C18.9741963,13.5642952 19.4895128,13.862488 19.9806198,14.2237934 C20.4158144,14.5445677 20.8337165,14.9157163 21.2337497,15.3372392 L21.2337497,13.168249 L21.2337497,13.0808177 L21.321365,13.0808177 L23.6045515,13.0808177 L23.6915905,13.0808177 L23.6915905,13.168249 L23.6915905,20.5651658 L23.6915905,20.6525971 L23.6045515,20.6525971 L21.1928241,20.6525971 L21.1115494,20.6525971 L21.1057852,20.5709559 C21.0452614,19.7059075 20.8619609,18.9323435 20.5593422,18.2508428 C20.2549942,17.5676051 19.8295986,16.9752727 19.2854613,16.4738457 C18.7384419,15.9724187 18.1107241,15.5960589 17.402308,15.3447664 C16.692739,15.0934739 15.9007425,14.9678276 15.0292005,14.9678276 C12.7512017,14.9678276 10.9556638,15.7217052 9.63336388,17.2311973 C8.97163752,17.9868119 8.47534275,18.8813901 8.14332674,19.9149319 C8.06723974,20.1534861 7.99922257,20.3995675 7.94100449,20.6525971 L4.79204013,20.6525971 Z" id="Fill-45" fill="#FEFEFE"/>
                        <path d="M20.838789,26.9702878 L23.8292388,26.9702878 L23.9249239,26.9702878 L23.9162777,27.0664043 C23.7940773,28.3095495 23.5116332,29.4050459 23.0666395,30.3528935 C22.620493,31.3030572 22.0112205,32.1044139 21.2376693,32.7558058 L21.2370929,32.7558058 C20.4675766,33.4060397 19.5528034,33.8935703 18.4927731,34.2178187 C17.4333192,34.5420671 16.2303376,34.7036123 14.8844046,34.7036123 C13.2773549,34.7036123 11.8409245,34.45811 10.5733842,33.9676842 C9.3052675,33.4766795 8.20892296,32.7395934 7.28550343,31.758163 C6.36093106,30.7773115 5.66692537,29.6129123 5.20463919,28.2661234 C4.74350584,26.9222295 4.51293917,25.395946 4.51293917,23.6878517 C4.51293917,23.1273651 4.53772508,22.5854071 4.58787333,22.0631355 L7.71147536,22.0631355 C7.66709128,22.505503 7.64518744,22.9658199 7.64518744,23.4452444 C7.64518744,26.2395708 8.30287888,28.4172463 9.61826176,29.9730597 C10.2736475,30.7483608 11.0569978,31.3296918 11.9677362,31.7176319 C12.8802038,32.105572 13.9229416,32.300121 15.0930675,32.300121 C16.6413227,32.300121 17.8967582,31.8554375 18.8559156,30.9666494 C19.3377999,30.5213869 19.7366803,29.9736387 20.0519802,29.3210888 C20.3690094,28.6668018 20.6018817,27.9071341 20.7534793,27.0426647 L20.7661605,26.9702878 L20.838789,26.9702878 Z" id="Fill-46" fill="#FEFEFE"/>
                    </g>
                    <path d="M163.646063,55.024658 L162.644911,52.110158 C162.614001,52.014458 162.581946,51.863078 162.548746,51.652538 L162.528139,51.652538 C162.498946,51.845678 162.464601,51.998798 162.428539,52.110158 L161.435973,55.024658 L163.646063,55.024658 Z M165.924842,57.874778 L164.611725,57.874778 L163.962035,56.016458 L161.125152,56.016458 L160.501794,57.874778 L159.193256,57.874778 L161.894477,50.566778 L163.242511,50.566778 L165.924842,57.874778 Z M146.890939,57.874778 L145.694021,57.874778 L145.694021,50.566778 L146.890939,50.566778 L146.890939,57.874778 Z M129.144966,51.548138 L129.144966,53.928458 L130.140966,53.928458 C130.324139,53.928458 130.496435,53.898878 130.650414,53.841458 C130.807256,53.784038 130.942346,53.700518 131.055683,53.590898 C131.171311,53.483018 131.25889,53.349038 131.321856,53.192438 C131.387683,53.035838 131.418594,52.860098 131.418594,52.666958 C131.418594,52.315478 131.310408,52.042298 131.092318,51.843938 C130.874228,51.647318 130.559401,51.548138 130.150697,51.548138 L129.144966,51.548138 Z M133.527366,57.874778 L132.127242,57.874778 L130.975546,55.919018 C130.871939,55.738058 130.770621,55.584938 130.671594,55.457918 C130.571994,55.330898 130.472394,55.226498 130.369359,55.144718 C130.26747,55.062938 130.156421,55.003778 130.034497,54.965498 C129.913718,54.928958 129.778628,54.909818 129.627511,54.909818 L129.144966,54.909818 L129.144966,57.874778 L127.953201,57.874778 L127.953201,50.566778 L130.326428,50.566778 C130.666442,50.566778 130.977263,50.606798 131.262325,50.688578 C131.547387,50.770358 131.795814,50.893898 132.007608,51.059198 C132.218828,51.222758 132.383683,51.429818 132.502173,51.675158 C132.62238,51.922238 132.680766,52.209338 132.680766,52.539938 C132.680766,52.797458 132.642987,53.035838 132.569146,53.251598 C132.493587,53.467358 132.385401,53.658758 132.246304,53.827538 C132.106635,53.996318 131.938346,54.138998 131.743152,54.257318 C131.547387,54.377378 131.325863,54.469598 131.082014,54.533978 L131.082014,54.553118 C131.212525,54.627938 131.325863,54.711458 131.423746,54.800198 C131.521628,54.890678 131.612642,54.982898 131.699649,55.078598 C131.787801,55.174298 131.873663,55.282178 131.959525,55.402238 C132.045387,55.522298 132.139835,55.663238 132.244587,55.821578 L133.527366,57.874778 Z M113.356649,55.024658 L112.355497,52.110158 C112.324587,52.014458 112.291387,51.863078 112.259332,51.652538 L112.238152,51.652538 C112.209532,51.845678 112.174614,51.998798 112.139125,52.110158 L111.145987,55.024658 L113.356649,55.024658 Z M115.634856,57.874778 L114.321166,57.874778 L113.672049,56.016458 L110.835166,56.016458 L110.211808,57.874778 L108.90327,57.874778 L111.605063,50.566778 L112.952525,50.566778 L115.634856,57.874778 Z M96.6009524,57.874778 L95.3977386,57.874778 L95.3977386,54.701018 L92.00218,54.701018 L92.00218,57.874778 L90.8052628,57.874778 L90.8052628,50.566778 L92.00218,50.566778 L92.00218,53.636138 L95.3977386,53.636138 L95.3977386,50.566778 L96.6009524,50.566778 L96.6009524,57.874778 Z M77.6912628,57.874778 L76.3821524,57.874778 L72.9373662,52.503398 C72.8497869,52.367678 72.7776628,52.226738 72.7209938,52.080578 L72.6906559,52.080578 C72.7175593,52.237178 72.72958,52.571258 72.72958,53.084558 L72.72958,57.874778 L71.5738766,57.874778 L71.5738766,50.566778 L72.9665593,50.566778 L76.2980076,55.802438 C76.4388214,56.018198 76.5286903,56.167838 76.5693317,56.249618 L76.5899386,56.249618 C76.5555938,56.056478 76.5384214,55.729358 76.5384214,55.268258 L76.5384214,50.566778 L77.6912628,50.566778 L77.6912628,57.874778 Z M58.9641731,57.874778 L54.9154903,57.874778 L54.9154903,50.566778 L58.8027524,50.566778 L58.8027524,51.600338 L56.1118352,51.600338 L56.1118352,53.667458 L58.5921041,53.667458 L58.5921041,54.690578 L56.1118352,54.690578 L56.1118352,56.851658 L58.9641731,56.851658 L58.9641731,57.874778 Z M42.0321731,57.378878 C41.2800214,57.792998 40.4437248,58.000058 39.5215662,58.000058 C38.4551593,58.000058 37.5913869,57.664238 36.930249,56.990858 C36.269111,56.317478 35.9394007,55.426598 35.9394007,54.318218 C35.9394007,53.185478 36.3000214,52.256318 37.02298,51.530738 C37.7459386,50.805158 38.6646628,50.441498 39.7780076,50.441498 C40.5793869,50.441498 41.2548352,50.559818 41.8003455,50.798198 L41.8003455,52.047518 C41.2473938,51.673418 40.5879731,51.485498 39.8238007,51.485498 C39.0544766,51.485498 38.4259662,51.743018 37.9348352,52.256318 C37.4437041,52.769618 37.1964214,53.434298 37.1964214,54.252098 C37.1964214,55.092518 37.4093593,55.751978 37.8318007,56.233958 C38.2542421,56.715938 38.8278007,56.956058 39.5524766,56.956058 C40.0487593,56.956058 40.4780697,56.858618 40.8404076,56.665478 L40.8404076,54.930698 L39.320649,54.930698 L39.320649,53.907578 L42.0321731,53.907578 L42.0321731,57.378878 Z M23.2884834,57.874778 L21.9799455,57.874778 L18.5351593,52.503398 C18.44758,52.367678 18.3754559,52.226738 18.3187869,52.080578 L18.2878766,52.080578 C18.3153524,52.237178 18.3273731,52.571258 18.3273731,53.084558 L18.3273731,57.874778 L17.1716697,57.874778 L17.1716697,50.566778 L18.5643524,50.566778 L21.8958007,55.802438 C22.0366145,56.018198 22.125911,56.167838 22.1671248,56.249618 L22.1877317,56.249618 C22.1533869,56.056478 22.1362145,55.729358 22.1362145,55.268258 L22.1362145,50.566778 L23.2884834,50.566778 L23.2884834,57.874778 Z M4.56196621,57.874778 L0.512711034,57.874778 L0.512711034,50.566778 L4.40054552,50.566778 L4.40054552,51.600338 L1.70962828,51.600338 L1.70962828,53.667458 L4.18932483,53.667458 L4.18932483,54.690578 L1.70962828,54.690578 L1.70962828,56.851658 L4.56196621,56.851658 L4.56196621,57.874778 Z" id="Fill-47" fill="#FFFFFF"/>
                </g>
            </g>
        </g>
    </g>
</svg>